<?xml version="1.0" encoding="UTF-8"?><svg xmlns="http://www.w3.org/2000/svg" viewBox="0 0 1480.1 781.9"><g isolation="isolate"><g id="_레이어_2"><g id="_레이어_1-2"><g mix-blend-mode="multiply"><polygon points="161.9 443.4 225.6 483 238.8 475.8 255.1 541.4 233.5 546.8 223.9 508.3 159.5 468.1 77.6 498.8 84.8 530.8 80.1 533.5 92.3 546.3 77 567 116.9 648.2 122.4 646.6 150.2 640.1 152.5 638.1 167 655.2 160.5 660.7 127.8 668.2 105.3 675.3 50.9 564.6 63.2 548.1 44.1 528.1 59.3 519.5 51.6 484.7 161.9 443.4" fill="#2d0408"/><polygon points="729.9 15.1 734.3 59.6 712.1 61.8 710.2 42.7 500.1 93 494.9 71.3 729.9 15.1" fill="#2d0408"/><polygon points="756.7 0 1003.8 92.2 969 124.2 953.9 107.8 961.9 100.4 771.9 29.5 761.9 32.8 766.9 84.2 744.7 86.4 737.9 17.2 753.7 12 756.7 0" fill="#2d0408"/><polygon points="876.3 159.7 1009.1 214.1 988.7 275.3 967.5 268.2 981.4 226.8 867.8 180.3 876.3 159.7" fill="#2d0408"/><polygon points="359.2 38 374.4 42.9 432.1 52.7 460.7 111.2 440.7 121 417 72.8 368.4 64.4 365.7 63.5 322.8 108.1 323.9 130.6 334.1 236.3 311.8 238.4 301.6 131.9 300 99.6 359.2 38" fill="#2d0408"/><polygon points="1114.7 26.4 1191.7 164.5 1126.8 236.6 1110.2 221.6 1164.4 161.4 1104.8 54.5 1045.5 78.4 1037.1 57.7 1114.7 26.4" fill="#2d0408"/><path d="M1292.5,432.4l90.5,54.4,10.9,4.1-7.3,124.8-22.3-1.3,6.3-109-79-47.5-33.3,17.3-3.4,56.3-22.3-1.4,4.2-68.9,55.6-28.9ZM1254.7,569.4l22.2,2.2-4,40.5,79.3,8-2.2,22.2-101.5-10.3,6.2-62.6Z" fill="#2d0408"/><polygon points="1226.9 220.9 1235.2 238.3 1235.9 237.8 1278.6 265.1 1288.3 289.9 1283 329.9 1258.7 418.9 1187.1 436.4 1181.8 414.7 1240.6 400.3 1261.3 324.8 1265.4 292.7 1260.5 280 1236.1 264.4 1226 271 1216.2 250.4 1123.6 293.6 1132.3 333.6 1110.5 338.4 1098 281 1226.9 220.9" fill="#2d0408"/><path d="M275.4,240.8l78.4,46.2,8.6,64.2-23.3,23.4-15.8-15.8,15.5-15.6-5.7-42.5-61.1-36-14.7,3.8-5.6-21.6,23.7-6.2ZM190.7,286.2l14.7,16.8-31.2,27.4,12,41.5,36.1,37.8-16.2,15.4-39.9-41.8-17.5-60.3,41.8-36.8Z" fill="#2d0408"/><rect x="445.2" y="176.8" width="165.7" height="22.3" transform="translate(2 381.5) rotate(-39.8)" fill="#2d0408"/><polygon points="1446.6 627.8 1431.1 654 1408.5 656.4 1404.6 635.8 1287.3 645.6 1242.7 684.8 1253.5 781.9 1276 781.9 1266.2 693.9 1296.5 667.2 1386.4 659.7 1390.5 680.8 1434.3 676.1 1457.3 781.9 1480.1 781.9 1446.6 627.8" fill="#2d0408"/><polygon points="141.4 664.4 72.4 678.9 73.7 681.6 7.8 700 0 781.9 39.1 781.9 23.7 768.9 28.5 717.4 105.6 695.9 105.1 694.8 139.4 687.6 226.1 721.5 234 781.9 256.5 781.9 246.5 705.6 141.4 664.4" fill="#2d0408"/></g></g></g></g></svg>